<svg width="34" height="34" viewBox="0 0 34 34" fill="none" xmlns="http://www.w3.org/2000/svg">
<path fill-rule="evenodd" clip-rule="evenodd" d="M16.9999 0.333336C7.79992 0.333336 0.333252 7.8 0.333252 17C0.333252 26.2 7.79992 33.6667 16.9999 33.6667C26.1999 33.6667 33.6666 26.2 33.6666 17C33.6666 7.8 26.1999 0.333336 16.9999 0.333336ZM16.9999 5.33334C19.7666 5.33334 21.9999 7.56667 21.9999 10.3333C21.9999 13.1 19.7666 15.3333 16.9999 15.3333C14.2333 15.3333 11.9999 13.1 11.9999 10.3333C11.9999 7.56667 14.2333 5.33334 16.9999 5.33334ZM16.9999 29C12.8333 29 9.14992 26.8667 6.99992 23.6333C7.04992 20.3167 13.6666 18.5 16.9999 18.5C20.3166 18.5 26.9499 20.3167 26.9999 23.6333C24.8499 26.8667 21.1666 29 16.9999 29Z" fill="#6D6F72"/>
</svg>
