<svg width="17" height="19" viewBox="0 0 17 19" fill="none" xmlns="http://www.w3.org/2000/svg">
<g opacity="0.7">
<mask id="mask0" mask-type="alpha" maskUnits="userSpaceOnUse" x="3" y="1" width="11" height="14">
<path fill-rule="evenodd" clip-rule="evenodd" d="M13.6221 14.0122V1.01219H3.37817V14.0122H13.6221Z" fill="white"/>
</mask>
<g mask="url(#mask0)">
<path fill-rule="evenodd" clip-rule="evenodd" d="M9.46306 1.72265V10.4217L12.0632 7.687C12.1901 7.55309 12.3621 7.47964 12.5426 7.47964C12.723 7.47964 12.8938 7.55309 13.0211 7.687L13.4249 8.11252C13.5519 8.24632 13.6221 8.42462 13.6221 8.61476C13.6221 8.805 13.5524 8.98341 13.4254 9.11721L8.97856 13.8049C8.85111 13.9393 8.68136 14.0127 8.50077 14.0122C8.31918 14.0127 8.14932 13.9393 8.02208 13.8049L3.5748 9.11721C3.44796 8.98341 3.37817 8.80511 3.37817 8.61476C3.37817 8.42462 3.44806 8.24632 3.5748 8.11252L3.97869 7.687C4.10543 7.55309 4.27468 7.47964 4.45517 7.47964C4.63556 7.47964 4.79589 7.55309 4.92273 7.687L7.53737 10.4525L7.53737 1.73322C7.53737 1.34142 7.85774 1.01219 8.22924 1.01219H8.80048C9.17198 1.01219 9.46728 1.35114 9.46728 1.74294" fill="black"/>
</g>
<rect width="17" height="2.04878" rx="1" transform="matrix(1 0 0 -1 0 18.3171)" fill="black"/>
</g>
</svg>
