<svg width="17" height="20" viewBox="0 0 17 20" fill="none" xmlns="http://www.w3.org/2000/svg">
<g opacity="0.7">
<mask id="mask0" mask-type="alpha" maskUnits="userSpaceOnUse" x="3" y="0" width="11" height="14">
<path fill-rule="evenodd" clip-rule="evenodd" d="M13.6221 0.939026V13.939H3.37817V0.939026L13.6221 0.939026Z" fill="white"/>
</mask>
<g mask="url(#mask0)">
<path fill-rule="evenodd" clip-rule="evenodd" d="M9.46306 13.2286V4.52956L12.0632 7.26421C12.1901 7.39813 12.3621 7.47158 12.5426 7.47158C12.723 7.47158 12.8938 7.39813 13.0211 7.26421L13.4249 6.8387C13.5519 6.7049 13.6221 6.5266 13.6221 6.33646C13.6221 6.14621 13.5524 5.96781 13.4254 5.834L8.97856 1.14629C8.85111 1.01196 8.68136 0.9385 8.50077 0.939029C8.31918 0.9385 8.14932 1.01196 8.02208 1.14629L3.5748 5.834C3.44796 5.96781 3.37817 6.14611 3.37817 6.33646C3.37817 6.5266 3.44806 6.7049 3.5748 6.8387L3.97869 7.26421C4.10543 7.39813 4.27468 7.47158 4.45517 7.47158C4.63556 7.47158 4.79589 7.39813 4.92273 7.26421L7.53737 4.4987L7.53737 13.218C7.53737 13.6098 7.85774 13.939 8.22924 13.939H8.80048C9.17198 13.939 9.46728 13.6001 9.46728 13.2083" fill="black"/>
</g>
<rect y="16.6585" width="17" height="2.04878" rx="1" fill="black"/>
</g>
</svg>
