<svg width="22" height="17" viewBox="0 0 22 17" fill="none" xmlns="http://www.w3.org/2000/svg">
<mask id="mask0" mask-type="alpha" maskUnits="userSpaceOnUse" x="0" y="0" width="22" height="17">
<path fill-rule="evenodd" clip-rule="evenodd" d="M0 0H22V17H0V0Z" fill="white"/>
</mask>
<g mask="url(#mask0)">
<path fill-rule="evenodd" clip-rule="evenodd" d="M20.7977 6.90197H6.0763L10.7042 2.58703C10.9308 2.37637 11.0551 2.09099 11.0551 1.79147C11.0551 1.49195 10.9308 1.20857 10.7042 0.997406L9.98407 0.327144C9.75763 0.116481 9.45589 0 9.13412 0C8.81217 0 8.51025 0.115649 8.28381 0.326312L0.350753 7.70602C0.123419 7.91751 -0.000889517 8.19923 4.79195e-06 8.49892C-0.000889517 8.80027 0.123419 9.08215 0.350753 9.29332L8.28381 16.6737C8.51025 16.8842 8.81199 17 9.13412 17C9.45589 17 9.75763 16.884 9.98407 16.6737L10.7042 16.0034C10.9308 15.7931 11.0551 15.5122 11.0551 15.2127C11.0551 14.9133 10.9308 14.6473 10.7042 14.4368L6.02407 10.0977H20.7798C21.4428 10.0977 22 9.56605 22 8.94953V8.00155C22 7.38503 21.4264 6.89498 20.7633 6.89498" fill="black"/>
</g>
</svg>
