<svg width="17" height="24" viewBox="0 0 17 24" fill="none" xmlns="http://www.w3.org/2000/svg">
<path fill-rule="evenodd" clip-rule="evenodd" d="M15.6712 16.8562C14.2491 14.4003 15.0786 13.0415 14.5196 8.49546C14.0188 4.42239 10.8996 3.2563 9.30193 2.92342V0H7.67636V2.92342C6.07649 3.2563 2.9573 4.42234 2.45757 8.49546C1.89859 13.0394 2.72812 14.4003 1.30602 16.8562C0.928137 17.5044 0.456335 18.0256 0.0180664 18.4274V19.3756H16.958V18.4274C16.5209 18.0256 16.0468 17.5044 15.6712 16.8562Z" fill="#4A4A4A"/>
<path fill-rule="evenodd" clip-rule="evenodd" d="M8.48813 23.9348C9.58534 23.9348 10.4748 23.0637 10.4748 21.9892C10.4748 20.9146 9.58534 20.0435 8.48813 20.0435C7.39093 20.0435 6.50146 20.9146 6.50146 21.9892C6.50146 23.0637 7.39093 23.9348 8.48813 23.9348Z" fill="#4A4A4A"/>
</svg>
