<svg width="18" height="18" viewBox="0 0 18 18" fill="none" xmlns="http://www.w3.org/2000/svg">
<mask id="mask0" mask-type="alpha" maskUnits="userSpaceOnUse" x="0" y="0" width="18" height="18">
<path fill-rule="evenodd" clip-rule="evenodd" d="M0.00268555 0.0175171H17.9826V17.9562H0.00268555V0.0175171Z" fill="white"/>
</mask>
<g mask="url(#mask0)">
<path fill-rule="evenodd" clip-rule="evenodd" d="M17.4885 15.0854L13.3627 10.9697C12.7481 11.9234 11.9349 12.7347 10.9788 13.3478L15.1046 17.4635C15.7631 18.1205 16.831 18.1205 17.4885 17.4635C18.1471 16.8077 18.1471 15.7423 17.4885 15.0854Z" fill="black"/>
<path fill-rule="evenodd" clip-rule="evenodd" d="M13.4868 6.74457C13.4868 3.02947 10.4675 0.0175171 6.7435 0.0175171C3.0193 0.0175171 0 3.02947 0 6.74457C0 10.4595 3.0193 13.4715 6.7435 13.4715C10.4675 13.4715 13.4868 10.4595 13.4868 6.74457ZM6.7435 11.7898C3.95447 11.7898 1.68577 9.52664 1.68577 6.74457C1.68577 3.96236 3.95447 1.69918 6.7435 1.69918C9.53232 1.69918 11.801 3.96236 11.801 6.74457C11.801 9.52664 9.53232 11.7898 6.7435 11.7898Z" fill="black"/>
</g>
</svg>
